<?xml version="1.0" encoding="UTF-8"?>
<svg id="Layer_1" data-name="Layer 1" xmlns="http://www.w3.org/2000/svg" viewBox="0 0 204.3 65.82">
  <defs>
    <style>
      .cls-1 {
        fill: #35416e;
      }

      .cls-1, .cls-2, .cls-3, .cls-4, .cls-5, .cls-6, .cls-7, .cls-8 {
        stroke-width: 0px;
      }

      .cls-2 {
        fill: #232d5c;
      }

      .cls-3 {
        fill: #32a6c9;
      }

      .cls-4 {
        fill: #f68a20;
      }

      .cls-5 {
        fill: #fdfdfd;
      }

      .cls-6 {
        fill: #33a4c7;
      }

      .cls-7 {
        fill: #222e5e;
      }

      .cls-8 {
        fill: #f3f9fa;
      }
    </style>
  </defs>
  <path class="cls-3" d="m0,1.66C.49.65,1.33.41,2.4.41c7.49.03,14.98,0,22.47.02,2.69,0,5.36.24,7.92,1.2,3.85,1.45,6.26,4.2,7.01,8.18,1.05,5.59.26,11-2.36,16.07-2.15,4.16-5.72,6.57-10.22,7.67-2.18.53-4.39.69-6.62.67-.61,0-1.23-.06-1.85.07-.67.14-1.14.52-1.26,1.18-.21,1.23-.35,2.47-.5,3.7-.29,2.29-.57,4.58-.85,6.87-.23,1.91-.45,3.82-.69,5.73-.24,1.89-.49,3.77-.73,5.66-.19,1.53-.36,3.07-.55,4.6-.09.77-.17,1.55-.28,2.32-.1.75-.64,1.14-1.25,1.46h-.77c-.38-.18-.74-.37-1.03-.7-2.9-3.31-5.8-6.61-8.71-9.91-.35-.4-.55-.84-.49-1.39.18-1.45.35-2.9.52-4.35.22-1.89.42-3.78.66-5.67.24-1.91.51-3.81.74-5.72.23-1.89.43-3.78.67-5.67.41-3.27.84-6.54,1.24-9.81.17-1.4.69-1.9,2.09-1.91,4.94,0,9.87,0,14.81,0,1.14,0,2.25-.12,3.09-1.03.84-.92,1.02-2.06.99-3.25-.03-1.27-.73-2.14-1.96-2.37-.41-.08-.85-.07-1.27-.07-4.06,0-8.13-.01-12.19,0-.78,0-1.37-.25-1.89-.85-1.75-2.03-3.54-4.01-5.29-6.04-1.29-1.51-2.73-2.9-3.86-4.54v-.89Z"/>
  <path class="cls-4" d="m204.3,36.23c-.27.8-.26,1.65-.37,2.47-.31,2.26-.54,4.54-.82,6.8-.27,2.25-.57,4.49-.85,6.74-.12.98-.71,1.58-1.72,1.59-5.23,0-10.47.05-15.7-.03-2.68-.04-5.31-.45-7.75-1.68-3.14-1.58-4.92-4.18-5.61-7.57-.53-2.59-.41-5.17-.04-7.77.37-2.58.62-5.17.93-7.75.25-2.1.51-4.2.78-6.3.13-1.04.76-1.56,1.81-1.56.28,0,.55,0,.83,0,.36.53.77,1.01,1.26,1.42.43.36.9.64,1.17,1.2.2.41.66.56,1.16.34.16-.07.33-.2.54-.13.94.28,1.92.28,2.89.32.47.02,1.17-.12,1.34.12.25.34-.23.86-.34,1.33-.17.74.03,1.35.6,1.63.57.28,1,.1,1.51-.65.47-.68.93-1.36,1.4-2.04.12-.17.21-.35.48-.35,1.1.01,2.2,0,3.36,0-.22.84-.42,1.61-.62,2.38-.11.42-.01.82.34,1.09.36.28.76.32,1.19.12.37-.17.62-.44.8-.78.42-.8.85-1.6,1.24-2.42.14-.29.29-.5.66-.47,1.66.12,3.18-.74,4.83-.71,2.07,1.36,3.33,3.3,4.05,5.64.3.96.37,1.96.63,2.92v4.08Zm-16.28,4.47c.4,0,.81.01,1.21,0,.75-.03,1.39-.49,1.49-1.23.14-1,.35-2,.3-3.03-.05-1.11-.82-1.95-1.91-2.13-.89-.15-1.78-.12-2.67-.11-.98.02-1.55.49-1.73,1.45-.15.79-.28,1.58-.31,2.38-.07,1.65.89,2.62,2.54,2.67.36,0,.72,0,1.08,0Z"/>
  <path class="cls-2" d="m191.28,0c.59.27,1.24.18,1.84.22,4.75.3,8.28,3.85,8.78,8.89.23,2.34.48,4.67.54,7.02.05,2.27-.35,4.37-1.96,6.1-.36.39-.31,1.06-.85,1.35-1.65-.03-3.17.83-4.83.71-.36-.03-.51.18-.66.47-.4.81-.82,1.62-1.24,2.42-.18.34-.43.61-.8.78-.43.19-.83.15-1.19-.12-.35-.27-.44-.66-.34-1.09.19-.77.4-1.54.62-2.38-1.16,0-2.26,0-3.36,0-.27,0-.36.18-.48.35-.47.68-.93,1.36-1.4,2.04-.51.75-.94.93-1.51.65-.57-.28-.77-.9-.6-1.63.11-.47.59-.99.34-1.33-.18-.24-.87-.1-1.34-.12-.97-.04-1.95-.04-2.89-.32-.21-.06-.38.06-.54.13-.5.22-.96.07-1.16-.34-.27-.56-.74-.84-1.17-1.2-.49-.41-.9-.89-1.26-1.42-1.14-1.93-1.23-4.04-1.08-6.2.13-1.78.27-3.55.46-5.32.3-2.8,1.04-5.4,3.32-7.3,1.51-1.26,3.26-1.89,5.19-2.11.57-.07,1.17,0,1.72-.24h1.28c.67.28,1.36.1,2.04.11.51,0,1.04.17,1.53-.11h1.02Zm8.99,21.48c.92-1.14,1.39-2.34,1.47-3.65.18-3.04-.15-6.06-.54-9.07-.25-1.91-.93-3.64-2.23-5.1-1.73-1.95-4-2.71-6.51-2.87-3.14-.2-6.28-.26-9.41.22-3.44.52-6.16,3.04-6.85,6.45-.27,1.31-.44,2.63-.54,3.96-.18,2.28-.54,4.56-.2,6.85.21,1.41.77,2.65,1.89,3.61-.12-.49-.3-.96-.46-1.43-.07-.21-.23-.48.11-.59.28-.09.34.16.4.37.02.08.06.16.09.24.34.89.67,1.78,1,2.67.1.28.23.52.57.48.34-.04.52-.29.57-.6.04-.25.03-.51,0-.76-.12-.9-.26-1.8-.4-2.7-.04-.24-.14-.5.2-.55.29-.04.32.22.35.43.17,1.19.44,2.38.39,3.59-.01.28.06.4.37.45.88.13,1.78.13,2.66.23.92.11,1.65.03,1.86-1.09.07-.38.36-.41.68-.18.52.36,1.06.7,1.59,1.05.19.13.38.24.64.23.98-.02,1.96,0,2.94,0,.16,0,.41.07.45-.13.14-.73.62-.42.97-.3,1.8.64,3.58.41,5.37-.08.36-.1.44-.24.29-.61-.35-.86-.65-1.74-.97-2.61-.09-.24-.25-.54.07-.66.35-.12.37.27.45.48.37.95.71,1.9,1.07,2.85.1.28.26.49.61.43.32-.06.45-.29.5-.58.02-.15,0-.3,0-.45,0-1.04-.28-2.05-.39-3.08-.02-.2-.11-.46.22-.49.27-.02.28.2.31.39.13.83.27,1.65.42,2.6Zm-9.16,5.4c-.04.35.08.61.45.65.32.03.57-.18.73-.43.51-.8.92-1.66,1.34-2.52.12-.25.02-.36-.19-.42-.43-.12-.87-.2-1.29-.34-.21-.07-.28.04-.32.18-.25.96-.49,1.92-.73,2.88Zm-6.84-.67c.07.28.1.57.41.68.31.12.52-.06.69-.3.51-.75,1.02-1.5,1.54-2.25.16-.22.17-.36-.08-.5-.17-.09-.32-.21-.48-.31-.86-.56-.85-.56-1.25.37-.32.76-.63,1.52-.84,2.3Z"/>
  <path class="cls-1" d="m190.25,0c-.49.28-1.03.12-1.53.11-.68-.01-1.38.17-2.04-.11h3.58Z"/>
  <path class="cls-4" d="m152.29,65.69c-3.15,0-6.3.06-9.45-.02-2.92-.07-5.78-.55-8.44-1.81-4.06-1.92-6.33-5.23-7.22-9.55-.54-2.66-.59-5.34-.28-8.03.36-3.13.69-6.27,1.05-9.41.41-3.59.85-7.19,1.27-10.78.42-3.59.84-7.19,1.27-10.78.36-3,.74-6,1.1-9.01.15-1.26.3-2.52.42-3.78.12-1.35.91-2.11,2.3-2.11,5.81,0,11.62-.03,17.43,0,2.91.02,5.8.26,8.57,1.25,4.67,1.67,7.51,4.98,8.6,9.78.58,2.54.69,5.12.4,7.72-.1.9-.77,1.54-1.68,1.64-.23.03-.47.03-.7.03-3.72,0-7.45,0-11.17,0-1.44,0-1.99-.43-2.35-1.8-.36-1.38-1.22-2.07-2.66-2.22-.85-.09-1.7-.09-2.55-.09-1.51,0-2.26.78-2.41,2.28-.2,2.06-.49,4.12-.73,6.17-.19,1.6-.35,3.2-.54,4.8-.24,1.99-.5,3.99-.74,5.98-.19,1.6-.35,3.2-.54,4.8-.18,1.62-.41,3.23-.56,4.86-.22,2.33.81,3.63,3.13,3.74.83.04,1.66.01,2.49,0,1.06-.01,1.84-.72,1.96-1.78.34-2.92.68-5.84,1.03-8.77.38-3.17.75-6.35,1.16-9.52.1-.79.58-1.36,1.35-1.61.82-.26,1.51-.01,2.06.62.9,1.04,1.78,2.11,2.68,3.16,2.46,2.9,4.9,5.81,7.37,8.7.56.65.84,1.32.73,2.2-.33,2.47-.61,4.95-.9,7.43-.23,1.95-.43,3.91-.66,5.87-.33,2.8-.67,5.59-1.02,8.38-.12.97-.94,1.64-1.95,1.64-3.28,0-6.55,0-9.83,0h0Z"/>
  <path class="cls-3" d="m105.18,48.3c-.24,0-.61-.04-.96,0-.95.12-1.45.68-1.55,1.64-.12,1.13-.25,2.27-.4,3.4-.12.88-.78,1.48-1.71,1.48-3.23.02-6.47.02-9.7,0-1.13,0-1.76-.84-1.63-1.95.4-3.32.78-6.64,1.19-9.95.4-3.27.83-6.54,1.24-9.82.28-2.25.52-4.49.8-6.74.32-2.58.65-5.16.97-7.74.24-1.93.46-3.86.7-5.79.23-1.89.48-3.77.73-5.66.05-.38.04-.75.13-1.13.17-.67.56-1.05,1.21-1.22.65-.17,1.18.04,1.6.51,2.77,3.13,5.52,6.3,8.31,9.41.63.7.73,1.44.63,2.29-.34,2.75-.67,5.5-1.01,8.26-.27,2.18-.54,4.36-.83,6.54-.11.86.43,1.63,1.37,1.84.73.16,1.58-.33,1.75-1.11.19-.88.3-1.79.38-2.69.06-.71.27-1.29.83-1.78,2.49-2.19,4.96-4.4,7.44-6.6,1.06-.95,2.12-1.9,3.19-2.84.92-.81,1.98-.71,2.63.2.29.4.27.85.22,1.28-.23,1.91-.49,3.82-.73,5.73-.23,1.91-.43,3.82-.67,5.73-.27,2.16-.65,4.29-1.46,6.32-.32.8-.24,1.48.28,2.19,1.3,1.76,1.85,3.8,2.09,5.95.28,2.49-.05,4.95-.37,7.41-.39,2.96-.7,5.92-1.05,8.88-.08.67-.15,1.34-.26,2.01-.11.66-.53,1.11-1.16,1.3-.67.2-1.24-.01-1.71-.54-1.09-1.24-2.2-2.48-3.29-3.73-1.73-1.96-3.44-3.93-5.17-5.89-.47-.53-.55-1.1-.47-1.81.14-1.19.51-2.37.23-3.59-.23-.99-.94-1.64-1.94-1.73-.57-.05-1.14-.14-1.83-.06Z"/>
  <path class="cls-3" d="m75.54,54.83c-2.43-.04-5.41.11-8.39-.11-2.75-.2-5.39-.78-7.71-2.37-2.58-1.75-3.88-4.28-4.41-7.28-.51-2.88-.17-5.74.21-8.6.25-1.91.45-3.82.69-5.73.28-2.2.58-4.4.87-6.6.04-.31,0-.63.14-.93.29-.63.74-1.02,1.47-1.02,5.85,0,11.7,0,17.56,0,.51,0,.89.23,1.21.59,2.87,3.25,5.73,6.51,8.59,9.76.46.52.58,1.13.26,1.76-.31.61-.81.92-1.54.92-4.75-.01-9.49,0-14.24,0-1.24,0-1.79.49-1.96,1.74-.1.78-.25,1.55-.24,2.34.02,1.43.91,2.39,2.37,2.41,2,.04,4,.04,6,.03.76,0,1.32.26,1.82.84,2.62,3.01,5.27,6,7.91,9,.13.14.24.3.37.44.5.55.67,1.17.34,1.86-.33.7-.92.95-1.66.95-3.04,0-6.09,0-9.68,0Z"/>
  <path class="cls-3" d="m47.06,22.19c1.47,0,2.94.06,4.4-.02,1.58-.08,2.23.79,2.03,2.36-.35,2.73-.67,5.46-1.01,8.19-.37,2.92-.75,5.83-1.11,8.75-.28,2.27-.53,4.54-.8,6.81-.21,1.72-.41,3.44-.64,5.16-.11.8-.77,1.38-1.66,1.38-3.26.02-6.51.03-9.77,0-1.07-.01-1.68-.71-1.59-1.79.14-1.62.35-3.24.55-4.86.28-2.29.57-4.58.86-6.87.25-1.97.5-3.94.74-5.92.23-1.89.44-3.78.67-5.67.25-2.08.5-4.15.78-6.23.1-.74.81-1.29,1.59-1.29,1.66,0,3.32,0,4.98,0Z"/>
  <path class="cls-3" d="m46.93,19.79c-1.55,0-3.1.02-4.66,0-.93-.02-.99-.15-.65-1,.9-2.24,1.81-4.48,2.69-6.73.19-.48.5-.69.99-.7,3.17-.05,6.33-.07,9.5.01.82.02.91.2.62.93-.91,2.26-1.84,4.52-2.72,6.79-.19.49-.49.7-.99.7-1.59,0-3.19,0-4.78,0,0,0,0,0,0,0Z"/>
  <path class="cls-3" d="m200.27,21.48c-.15-.94-.29-1.77-.42-2.6-.03-.19-.04-.41-.31-.39-.33.03-.24.29-.22.49.11,1.03.39,2.04.39,3.08,0,.15.01.3,0,.45-.04.29-.18.52-.5.58-.35.07-.5-.15-.61-.43-.36-.95-.7-1.9-1.07-2.85-.08-.21-.1-.6-.45-.48-.32.11-.16.41-.07.66.33.87.62,1.76.97,2.61.15.37.07.51-.29.61-1.78.49-3.56.72-5.37.08-.35-.12-.83-.44-.97.3-.04.2-.29.13-.45.13-.98,0-1.96,0-2.94,0-.26,0-.44-.11-.64-.23-.53-.35-1.07-.69-1.59-1.05-.32-.22-.61-.2-.68.18-.2,1.11-.94,1.2-1.86,1.09-.88-.1-1.78-.1-2.66-.23-.31-.05-.39-.17-.37-.45.05-1.22-.22-2.4-.39-3.59-.03-.22-.06-.47-.35-.43-.35.05-.24.31-.2.55.15.9.28,1.8.4,2.7.03.25.04.51,0,.76-.05.31-.23.56-.57.6-.34.04-.47-.2-.57-.48-.33-.89-.67-1.78-1-2.67-.03-.08-.07-.16-.09-.24-.06-.21-.12-.46-.4-.37-.34.11-.18.38-.11.59.16.47.35.94.46,1.43-1.12-.95-1.68-2.2-1.89-3.61-.34-2.29.02-4.57.2-6.85.11-1.33.28-2.65.54-3.96.69-3.41,3.41-5.93,6.85-6.45,3.13-.47,6.27-.42,9.41-.22,2.51.16,4.77.92,6.51,2.87,1.3,1.46,1.98,3.19,2.23,5.1.39,3.01.72,6.03.54,9.07-.08,1.31-.55,2.51-1.47,3.65Zm-11.74-4.63c2.22.02,4.42-.04,6.54-.77,1.38-.47,2.55-1.24,3.04-2.67.55-1.61.62-3.28.22-4.94-.54-2.25-2.09-3.62-4.17-4.36-3.61-1.28-7.28-1.26-10.92-.12-2,.63-3.55,1.88-4.32,3.92-.41,1.08-.33,2.21-.31,3.33.06,2.65,1.21,4.17,3.74,4.94,2.01.62,4.09.69,6.16.66Zm-.1,1.37c-.22.46-.44.86-.5,1.33-.15,1.1-.04,2.21-.07,3.31,0,.22-.09.57.23.57.37,0,.25-.37.26-.6.01-.94.02-1.87,0-2.81-.02-.65.25-1.23.59-1.71.24-.34.83-.21,1.27-.19.73.03,1.44-.11,2.16-.16.48-.03.96-.16,1.44-.25.18-.04.31-.14.28-.36-.03-.21-.18-.27-.37-.26-.15,0-.29.04-.44.07-2.49.42-4.98.45-7.49.22-.87-.08-1.73-.19-2.59-.28-.21-.02-.45-.04-.46.28,0,.24.14.33.36.36.72.08,1.44.14,2.15.27,1.05.19,2.12.02,3.21.22Zm-.19-16.82c-1.84-.07-3.65.12-5.43.51-.2.04-.49.04-.4.34.07.24.29.14.49.1.87-.15,1.74-.34,2.62-.42,2.91-.27,5.8-.09,8.67.42.23.04.53.17.58-.15.04-.25-.26-.27-.47-.3-2.01-.32-4.02-.59-6.05-.51Zm1.12,21.57c.45,0,.72-.24.75-.65.04-.46-.26-.73-.69-.74-.41-.01-.68.25-.69.67-.01.42.25.65.63.71Z"/>
  <path class="cls-6" d="m191.11,26.88c.24-.96.48-1.92.73-2.88.04-.14.1-.25.32-.18.42.13.86.22,1.29.34.21.06.31.17.19.42-.42.86-.83,1.72-1.34,2.52-.16.26-.41.46-.73.43-.37-.03-.49-.29-.45-.65Z"/>
  <path class="cls-6" d="m184.27,26.22c.21-.79.52-1.55.84-2.3.39-.94.39-.94,1.25-.37.16.1.31.22.48.31.25.14.24.28.08.5-.53.74-1.03,1.5-1.54,2.25-.17.24-.38.42-.69.3-.3-.11-.34-.41-.41-.68Z"/>
  <path class="cls-7" d="m188.53,16.85c-2.07.03-4.15-.05-6.16-.66-2.53-.77-3.68-2.3-3.74-4.94-.03-1.12-.1-2.25.31-3.33.77-2.05,2.32-3.29,4.32-3.92,3.64-1.14,7.31-1.16,10.92.12,2.08.74,3.63,2.1,4.17,4.36.4,1.66.33,3.33-.22,4.94-.49,1.43-1.66,2.2-3.04,2.67-2.12.73-4.32.79-6.54.77Zm-4.41-.86c.85.21,1.72.21,2.58.27,2.08.15,4.16.11,6.21-.3,1.22-.09,2.35-.44,3.36-1.13.91-.63,1.44-1.5,1.51-2.63.26-1.09.25-2.2.06-3.28-.37-2.12-1.77-3.44-3.68-4.18-3.24-1.25-6.58-1.22-9.92-.43-1.83.43-3.4,1.32-4.37,3-.85,1.47-.81,3.08-.58,4.7.15,1.55.94,2.63,2.35,3.26.79.36,1.62.59,2.48.71Z"/>
  <path class="cls-7" d="m188.43,18.22c-1.09-.2-2.16-.03-3.21-.22-.71-.13-1.43-.19-2.15-.27-.22-.03-.36-.11-.36-.36.01-.32.25-.3.46-.28.87.09,1.73.2,2.59.28,2.5.23,5,.2,7.49-.22.15-.02.29-.06.44-.07.19-.01.34.05.37.26.03.21-.11.32-.28.36-.48.1-.96.22-1.44.25-.72.05-1.43.19-2.16.16-.44-.02-1.03-.14-1.27.19-.34.48-.61,1.05-.59,1.71.02.93.01,1.87,0,2.81,0,.23.11.6-.26.6-.32,0-.23-.35-.23-.57.03-1.1-.08-2.21.07-3.31.07-.47.28-.87.5-1.33Z"/>
  <path class="cls-8" d="m188.25,1.4c2.03-.08,4.04.19,6.05.51.21.03.52.05.47.3-.05.32-.35.19-.58.15-2.87-.51-5.76-.69-8.67-.42-.88.08-1.75.27-2.62.42-.19.03-.42.14-.49-.1-.08-.3.2-.3.4-.34,1.79-.39,3.59-.58,5.43-.51Z"/>
  <path class="cls-7" d="m189.37,22.97c-.38-.07-.65-.29-.63-.71.01-.42.29-.69.69-.67.43.01.73.28.69.74-.03.41-.3.64-.75.65Z"/>
  <path class="cls-5" d="m179.29,12.02c-.23-1.62-.27-3.23.58-4.7.97-1.68,2.54-2.57,4.37-3,3.34-.79,6.68-.83,9.92.43,1.91.74,3.31,2.07,3.68,4.18.19,1.08.2,2.19-.06,3.28-.49.66-.93,1.35-1.57,1.89-.98.84-2.13,1.36-3.29,1.87-2.06.41-4.13.45-6.21.3-.86-.06-1.73-.06-2.58-.27-.09-.24-.34-.22-.52-.3-1.83-.77-3.36-1.88-4.31-3.67Zm5.35-1.93c.1-.71-.36-1.06-.85-1.1-.57-.04-.95.41-.94,1.09,0,.67.33,1.04.91,1.04.6,0,.88-.33.88-1.03Zm9.6-.03c.08-.66-.3-1.04-.88-1.08-.54-.04-.9.43-.9,1.08,0,.67.33,1.06.91,1.06.6,0,.87-.33.87-1.06Zm-5.63,1.81c.42.05.78-.13,1.12-.35.13-.09.36-.19.22-.38-.13-.18-.3-.03-.44.06-.69.45-1.34.43-1.94-.18-.08-.08-.16-.24-.3-.1-.15.14-.06.26.05.38.35.36.75.62,1.29.57Z"/>
  <path class="cls-3" d="m179.29,12.02c.95,1.8,2.49,2.9,4.31,3.67.18.08.43.06.52.3-.86-.12-1.69-.35-2.48-.71-1.41-.64-2.2-1.72-2.35-3.26Z"/>
  <path class="cls-6" d="m192.91,15.96c1.16-.51,2.31-1.03,3.29-1.87.64-.55,1.08-1.23,1.57-1.89-.07,1.12-.6,2-1.51,2.63-1.01.69-2.14,1.05-3.36,1.13Z"/>
  <path class="cls-2" d="m184.64,10.08c0,.71-.28,1.03-.88,1.03-.58,0-.9-.37-.91-1.04,0-.68.37-1.13.94-1.09.49.04.95.38.85,1.1Z"/>
  <path class="cls-2" d="m194.24,10.06c0,.73-.27,1.06-.87,1.06-.57,0-.9-.38-.91-1.06,0-.66.35-1.12.9-1.08.58.04.96.42.88,1.08Z"/>
  <path class="cls-2" d="m188.61,11.87c-.54.05-.94-.21-1.29-.57-.11-.12-.2-.24-.05-.38.15-.14.22.02.3.1.6.61,1.24.63,1.94.18.14-.09.32-.24.44-.06.13.19-.09.3-.22.38-.34.22-.7.4-1.12.35Z"/>
</svg>