<?xml version="1.0" standalone="no"?>
<!DOCTYPE svg PUBLIC "-//W3C//DTD SVG 20010904//EN"
 "http://www.w3.org/TR/2001/REC-SVG-20010904/DTD/svg10.dtd">
<svg version="1.0" xmlns="http://www.w3.org/2000/svg"
 width="600.000000pt" height="193.000000pt" viewBox="0 0 600.000000 193.000000"
 preserveAspectRatio="xMidYMid meet">

<g transform="translate(0.000000,193.000000) scale(0.100000,-0.100000)"
fill="#000000" stroke="none">
<path d="M5394 1920 c-79 -11 -133 -39 -176 -90 -47 -55 -64 -113 -79 -274
-16 -170 -3 -226 67 -293 39 -39 48 -43 92 -43 27 0 63 -3 78 -6 27 -5 29 -9
26 -43 -7 -68 43 -61 86 11 15 25 22 28 69 28 56 0 59 -3 43 -44 -14 -37 -3
-58 29 -54 20 2 33 15 53 53 26 48 29 50 80 58 87 13 100 15 102 19 1 2 14 21
28 43 42 63 50 94 50 183 -3 269 -59 389 -204 439 -51 17 -257 26 -344 13z
m364 -40 c65 -28 117 -86 138 -155 10 -31 18 -106 21 -201 5 -133 3 -154 -13
-185 l-18 -34 -9 43 c-14 61 -24 52 -23 -20 1 -35 -3 -64 -9 -64 -5 -1 -18 20
-28 47 -10 27 -23 49 -28 49 -12 0 -12 4 11 -57 l19 -51 -37 -6 c-20 -3 -85
-5 -144 -5 l-108 1 0 53 c0 30 5 66 12 80 9 21 18 25 53 25 50 0 105 10 105
19 0 3 -74 6 -165 6 -91 0 -165 -3 -165 -6 0 -9 56 -19 109 -19 l46 0 -3 -77
c-2 -43 -6 -80 -8 -82 -1 -2 -19 6 -38 18 l-35 22 -11 -21 c-9 -17 -20 -20
-74 -20 l-63 0 -6 61 c-3 33 -8 63 -11 66 -13 14 -16 -7 -6 -57 10 -53 3 -79
-18 -66 -6 3 -18 29 -27 56 -9 28 -21 50 -26 50 -11 0 -11 -2 1 -37 l10 -28
-20 23 c-33 40 -43 97 -36 217 13 205 46 290 131 340 61 36 116 44 280 41 121
-2 147 -6 193 -26z m-268 -656 c0 -10 -53 -84 -61 -84 -19 0 -19 23 0 65 18
41 22 45 41 35 11 -6 20 -13 20 -16z m184 0 c13 -5 13 -11 -6 -47 -37 -75 -63
-71 -45 6 11 46 20 53 51 41z"/>
<path d="M5442 1829 c-139 -24 -215 -117 -197 -238 10 -66 30 -98 77 -122 81
-41 343 -43 425 -2 54 27 76 63 81 133 8 110 -36 179 -137 215 -55 19 -181 27
-249 14z m205 -22 c118 -25 168 -86 161 -200 -3 -63 -7 -72 -35 -98 -41 -36
-87 -49 -196 -56 -106 -7 -213 10 -259 41 -58 38 -74 136 -37 213 45 94 197
135 366 100z"/>
<path d="M5383 1663 c-19 -7 -16 -50 3 -57 22 -9 34 1 34 29 0 24 -16 35 -37
28z"/>
<path d="M5660 1654 c-10 -11 -11 -20 -3 -32 17 -27 38 -20 38 12 0 34 -16 44
-35 20z"/>
<path d="M5512 1596 c11 -13 24 -17 42 -12 14 3 26 11 26 16 0 6 -10 5 -25 -2
-19 -8 -28 -8 -42 2 -17 13 -17 13 -1 -4z"/>
<path d="M5545 1291 c-8 -15 3 -31 21 -31 9 0 14 7 12 17 -4 20 -24 28 -33 14z"/>
<path d="M30 1907 c-48 -24 -38 -46 90 -193 67 -76 135 -151 151 -166 l29 -28
216 0 c215 0 215 0 239 -25 30 -29 32 -66 7 -115 -28 -58 -40 -60 -325 -60
l-257 0 -10 -22 c-5 -13 -20 -117 -34 -233 -14 -116 -40 -328 -58 -472 l-32
-261 59 -68 c161 -185 238 -264 255 -264 11 0 26 10 34 23 8 14 33 181 66 447
46 380 53 427 72 443 16 13 39 17 102 17 332 1 521 190 543 546 9 160 -25 266
-113 342 -99 88 -187 101 -679 101 -246 1 -336 -3 -355 -12z"/>
<path d="M2802 1778 c-12 -15 -9 6 -67 -468 -24 -201 -61 -497 -81 -659 l-37
-295 23 -18 c19 -16 42 -18 175 -18 176 0 180 2 190 78 14 112 19 117 94 117
89 -1 105 -19 99 -112 -6 -88 -12 -78 147 -257 96 -109 125 -136 146 -136 35
0 46 15 53 75 3 28 15 127 27 220 30 244 19 357 -44 448 -19 28 -19 29 2 100
19 64 71 431 71 499 0 26 -23 48 -49 48 -18 0 -352 -302 -362 -327 -5 -13 -9
-40 -9 -59 0 -35 -28 -74 -53 -74 -8 0 -22 9 -32 20 -17 19 -17 28 9 232 14
117 26 230 26 251 0 34 -13 52 -136 192 -138 156 -165 176 -192 143z"/>
<path d="M1312 1588 c-12 -15 -92 -213 -92 -228 0 -6 62 -10 159 -10 l159 0
46 116 c26 63 44 119 41 125 -10 14 -300 12 -313 -3z"/>
<path d="M1206 1264 c-9 -8 -16 -19 -16 -23 0 -5 -11 -98 -25 -207 -14 -109
-36 -293 -50 -409 -14 -116 -28 -222 -31 -237 -4 -19 1 -33 15 -47 19 -19 33
-21 176 -21 142 0 157 2 175 20 11 11 20 28 20 37 -1 10 23 211 52 446 51 420
52 429 33 443 -29 22 -327 20 -349 -2z"/>
<path d="M1686 1264 c-9 -8 -16 -19 -16 -24 0 -5 -13 -115 -30 -245 -34 -268
-36 -336 -15 -419 30 -113 104 -189 223 -227 61 -20 93 -23 368 -27 297 -4
302 -4 323 17 12 12 21 26 21 31 0 10 -76 101 -207 246 l-73 82 -119 3 c-153
5 -165 13 -159 108 3 47 9 67 23 77 15 11 69 14 251 14 246 0 260 3 252 49 -2
10 -65 89 -141 175 l-138 156 -274 0 c-235 0 -276 -2 -289 -16z"/>
</g>
</svg>
